# Blender 3.1.0
# www.blender.org
mtllib chassis.mtl
o Cube.001
v 0.787526 -0.160000 0.460000
v 0.791956 -0.155851 0.460000
v 0.818330 -0.126420 0.460000
v 0.838845 -0.093148 0.460000
v 0.852877 -0.057045 0.460000
v 0.860002 -0.019210 0.460000
v 0.860002 0.019210 0.460000
v 0.852877 0.057045 0.460000
v 0.838845 0.093148 0.460000
v 0.818330 0.126420 0.460000
v 0.791956 0.155851 0.460000
v 0.787526 0.160000 0.460000
v -0.805714 0.160000 0.460000
v -0.809447 0.156519 0.460000
v -0.833633 0.130107 0.460000
v -0.853091 0.100491 0.460000
v -0.867343 0.068401 0.460000
v -0.876037 0.034627 0.460000
v -0.878959 -0.000000 0.460000
v -0.876037 -0.034627 0.460000
v -0.867343 -0.068401 0.460000
v -0.853091 -0.100491 0.460000
v -0.833633 -0.130107 0.460000
v -0.809447 -0.156519 0.460000
v -0.805714 -0.160000 0.460000
v -0.809447 0.156519 0.000000
v -0.805714 0.160000 0.000000
v -0.805714 0.160000 -0.460000
v -0.809447 0.156519 -0.460000
v 0.787526 -0.160000 -0.000000
v 0.791956 -0.155851 -0.000000
v -0.809447 -0.156519 -0.000000
v -0.805714 -0.160000 -0.000000
v -0.805714 -0.160000 -0.460000
v 0.787526 -0.160000 -0.460000
v 0.787526 0.160000 -0.460000
v 0.787526 0.160000 0.000000
v 0.791956 0.155851 0.000000
v -0.809447 -0.156519 -0.460000
v -0.833633 0.130107 -0.460000
v -0.833633 0.130107 0.000000
v -0.853091 0.100491 -0.460000
v -0.853091 0.100491 0.000000
v -0.867343 0.068401 -0.460000
v -0.867343 0.068401 0.000000
v -0.876037 0.034627 -0.460000
v -0.876037 0.034627 0.000000
v -0.878959 0.000000 -0.460000
v -0.878959 0.000000 0.000000
v -0.876037 -0.034627 -0.460000
v -0.876037 -0.034627 -0.000000
v -0.867343 -0.068401 -0.460000
v -0.867343 -0.068401 -0.000000
v -0.853091 -0.100491 -0.460000
v -0.853091 -0.100491 -0.000000
v -0.833633 -0.130107 -0.460000
v -0.833633 -0.130107 -0.000000
v 0.791956 0.155851 -0.460000
v 0.818330 0.126420 -0.460000
v 0.838845 0.093148 -0.460000
v 0.852877 0.057045 -0.460000
v 0.860002 0.019210 -0.460000
v 0.860002 -0.019210 -0.460000
v 0.852877 -0.057045 -0.460000
v 0.838845 -0.093148 -0.460000
v 0.818330 -0.126420 -0.460000
v 0.791956 -0.155851 -0.460000
v 0.818330 0.126420 0.000000
v 0.838845 0.093148 0.000000
v 0.852877 0.057045 0.000000
v 0.860002 0.019210 0.000000
v 0.860002 -0.019210 -0.000000
v 0.852877 -0.057045 -0.000000
v 0.838845 -0.093148 -0.000000
v 0.818330 -0.126420 -0.000000
vn -0.0000 -0.0000 1.0000
vn -0.9989 -0.0467 0.0001
vn -0.9991 -0.0435 -0.0000
vn -0.9989 -0.0468 -0.0000
vn 0.9990 0.0437 -0.0000
vn 0.9989 0.0472 -0.0000
vn -0.9991 0.0435 -0.0000
vn -0.9989 0.0468 -0.0000
vn -0.9989 0.0467 -0.0001
vn -0.0000 -1.0000 -0.0000
vn -0.0000 1.0000 -0.0000
vn 0.9989 -0.0472 0.0002
vn 0.9990 -0.0437 -0.0000
vn 0.9989 -0.0472 -0.0000
vn -0.9987 -0.0513 -0.0000
vn -0.9987 -0.0515 0.0001
vn -0.9988 -0.0498 -0.0000
vn -0.9987 -0.0501 -0.0002
vn -0.9992 -0.0392 -0.0000
vn -0.9992 -0.0396 -0.0000
vn -0.9998 -0.0215 -0.0000
vn -0.9998 -0.0218 -0.0000
vn -1.0000 -0.0000 -0.0000
vn -0.9998 0.0215 0.0001
vn -0.9998 0.0218 -0.0000
vn -0.9992 0.0392 0.0002
vn -0.9992 0.0396 -0.0000
vn -0.9988 0.0498 -0.0000
vn -0.9987 0.0501 -0.0000
vn -0.9987 0.0513 -0.0000
vn -0.9987 0.0515 -0.0000
vn -0.9992 -0.0392 -0.0002
vn -0.9998 -0.0215 -0.0001
vn -0.9998 0.0215 -0.0000
vn -0.9992 0.0392 -0.0000
vn -0.0000 -0.0000 -1.0000
vn 0.9987 -0.0513 -0.0000
vn 0.9987 -0.0515 -0.0001
vn 0.9989 -0.0476 -0.0000
vn 0.9988 -0.0480 -0.0000
vn 0.9994 -0.0335 -0.0000
vn 0.9994 -0.0339 -0.0000
vn 0.9999 -0.0121 -0.0000
vn 0.9999 -0.0123 -0.0000
vn 0.9999 0.0121 -0.0000
vn 0.9999 0.0123 -0.0000
vn 0.9994 0.0335 -0.0001
vn 0.9994 0.0339 -0.0000
vn 0.9989 0.0476 -0.0000
vn 0.9988 0.0480 -0.0000
vn 0.9987 0.0513 -0.0000
vn 0.9987 0.0515 -0.0000
vn 0.9994 -0.0335 0.0001
vn 0.9994 0.0335 -0.0000
vt 0.375000 0.750000
vt 0.378241 0.750000
vt 0.401126 0.750225
vt 0.426798 0.750874
vt 0.454477 0.751876
vt 0.483322 0.753027
vt 0.516678 0.753027
vt 0.545523 0.751875
vt 0.573202 0.750874
vt 0.598874 0.750225
vt 0.621759 0.750000
vt 0.625000 0.750000
vt 0.625000 1.000000
vt 0.875000 0.750000
vt 0.625000 0.000000
vt 0.622280 1.000000
vt 0.622280 0.000000
vt 0.601646 0.999436
vt 0.601779 0.000000
vt 0.578509 0.997799
vt 0.579039 0.000000
vt 0.553438 0.995231
vt 0.554620 0.000000
vt 0.527052 0.992037
vt 0.529122 0.000000
vt 0.500000 0.989738
vt 0.500000 0.000000
vt 0.472948 0.992037
vt 0.470878 0.000000
vt 0.446562 0.995231
vt 0.445380 0.000000
vt 0.421491 0.997799
vt 0.420961 0.000000
vt 0.398354 0.999436
vt 0.398221 0.000000
vt 0.377720 1.000000
vt 0.377720 0.000000
vt 0.375000 1.000000
vt 0.375000 0.000000
vt 0.125000 0.750000
vt 0.622280 0.125000
vt 0.875000 0.625000
vt 0.625000 0.125000
vt 0.875000 0.500000
vt 0.625000 0.250000
vt 0.622280 0.250000
vt 0.375000 0.625000
vt 0.378241 0.625000
vt 0.377720 0.125000
vt 0.125000 0.625000
vt 0.375000 0.125000
vt 0.125000 0.500000
vt 0.375000 0.250000
vt 0.375000 0.500000
vt 0.625000 0.500000
vt 0.625000 0.625000
vt 0.621759 0.625000
vt 0.377720 0.250000
vt 0.601735 0.250188
vt 0.601779 0.125000
vt 0.578862 0.250734
vt 0.579039 0.125000
vt 0.554226 0.251590
vt 0.554620 0.125000
vt 0.528432 0.252654
vt 0.529122 0.125000
vt 0.500000 0.253421
vt 0.500000 0.125000
vt 0.471568 0.252654
vt 0.470878 0.125000
vt 0.445774 0.251590
vt 0.445380 0.125000
vt 0.421138 0.250734
vt 0.420961 0.125000
vt 0.398265 0.250188
vt 0.398221 0.125000
vt 0.621759 0.500000
vt 0.598874 0.499774
vt 0.573202 0.499121
vt 0.545524 0.498115
vt 0.516678 0.496956
vt 0.483322 0.496956
vt 0.454477 0.498115
vt 0.426798 0.499121
vt 0.401126 0.499774
vt 0.378241 0.500000
vt 0.598928 0.625000
vt 0.573418 0.625000
vt 0.546002 0.625000
vt 0.517513 0.625000
vt 0.482487 0.625000
vt 0.453998 0.625000
vt 0.426582 0.625000
vt 0.401072 0.625000
s 1
usemtl Default_OBJ
f 1/1/1 2/2/1 3/3/1 4/4/1 5/5/1 6/6/1 7/7/1 8/8/1 9/9/1 10/10/1 11/11/1 12/12/1 13/13/1 14/16/1 15/18/1 16/20/1 17/22/1 18/24/1 19/26/1 20/28/1 21/30/1 22/32/1 23/34/1 24/36/1 25/38/1
f 26/41/2 27/43/3 28/45/3 29/46/4
f 30/47/5 31/48/6 2/2/6 1/1/5
f 25/39/7 24/37/8 32/49/9 33/51/7
f 34/52/10 35/54/10 30/47/10 1/1/10 25/40/10 33/50/10
f 36/55/11 28/44/11 27/42/11 13/14/11 12/12/11 37/56/11
f 38/57/12 37/56/13 12/12/13 11/11/14
f 33/51/7 32/49/9 39/58/8 34/53/7
f 26/41/2 29/46/4 40/59/15 41/60/16
f 41/60/16 40/59/15 42/61/17 43/62/18
f 43/62/18 42/61/17 44/63/19 45/64/20
f 45/64/20 44/63/19 46/65/21 47/66/22
f 47/66/22 46/65/21 48/67/23 49/68/23
f 49/68/23 48/67/23 50/69/24 51/70/25
f 51/70/25 50/69/24 52/71/26 53/72/27
f 53/72/27 52/71/26 54/73/28 55/74/29
f 55/74/29 54/73/28 56/75/30 57/76/31
f 57/76/31 56/75/30 39/58/8 32/49/9
f 14/17/4 26/41/2 41/60/16 15/19/15
f 15/19/15 41/60/16 43/62/18 16/21/17
f 16/21/17 43/62/18 45/64/20 17/23/32
f 17/23/32 45/64/20 47/66/22 18/25/33
f 18/25/33 47/66/22 49/68/23 19/27/23
f 19/27/23 49/68/23 51/70/25 20/29/34
f 20/29/34 51/70/25 53/72/27 21/31/35
f 21/31/35 53/72/27 55/74/29 22/33/28
f 22/33/28 55/74/29 57/76/31 23/35/30
f 23/35/30 57/76/31 32/49/9 24/37/8
f 14/17/4 13/15/3 27/43/3 26/41/2
f 58/77/14 36/55/13 37/56/13 38/57/12
f 34/53/36 39/58/36 56/75/36 54/73/36 52/71/36 50/69/36 48/67/36 46/65/36 44/63/36 42/61/36 40/59/36 29/46/36 28/45/36 36/55/36 58/77/36 59/78/36 60/79/36 61/80/36 62/81/36 63/82/36 64/83/36 65/84/36 66/85/36 67/86/36 35/54/36
f 38/57/12 11/11/14 10/10/37 68/87/38
f 68/87/38 10/10/37 9/9/39 69/88/40
f 69/88/40 9/9/39 8/8/41 70/89/42
f 70/89/42 8/8/41 7/7/43 71/90/44
f 71/90/44 7/7/43 6/6/45 72/91/46
f 72/91/46 6/6/45 5/5/47 73/92/48
f 73/92/48 5/5/47 4/4/49 74/93/50
f 74/93/50 4/4/49 3/3/51 75/94/52
f 75/94/52 3/3/51 2/2/6 31/48/6
f 58/77/14 38/57/12 68/87/38 59/78/37
f 59/78/37 68/87/38 69/88/40 60/79/39
f 60/79/39 69/88/40 70/89/42 61/80/53
f 61/80/53 70/89/42 71/90/44 62/81/43
f 62/81/43 71/90/44 72/91/46 63/82/45
f 63/82/45 72/91/46 73/92/48 64/83/54
f 64/83/54 73/92/48 74/93/50 65/84/49
f 65/84/49 74/93/50 75/94/52 66/85/51
f 66/85/51 75/94/52 31/48/6 67/86/6
f 35/54/5 67/86/6 31/48/6 30/47/5
